HIERARCHY
ROOT Hips
{
	OFFSET -0.001795 -0.223333 0.028219
	CHANNELS 6 Xposition Yposition Zposition Zrotation Yrotation Xrotation 
	JOINT LeftUpLeg
	{
		OFFSET 0.069520 -0.091406 -0.006815
		CHANNELS 3 Zrotation Yrotation Xrotation
		JOINT LeftLeg
		{
			OFFSET 0.034277 -0.375199 -0.004496
			CHANNELS 3 Zrotation Yrotation Xrotation
			JOINT LeftFoot
			{
				OFFSET -0.013596 -0.397961 -0.043693
				CHANNELS 3 Zrotation Yrotation Xrotation
				JOINT LeftToe
				{
					OFFSET 0.026358 -0.055791 0.119288
					CHANNELS 3 Zrotation Yrotation Xrotation
					End Site
					{
						OFFSET 0.000000 0.000000 0.000000
					}
				}
			}
		}
	}
	JOINT RightUpLeg
	{
		OFFSET -0.067670 -0.090522 -0.004320
		CHANNELS 3 Zrotation Yrotation Xrotation
		JOINT RightLeg
		{
			OFFSET -0.038290 -0.382569 -0.008850
			CHANNELS 3 Zrotation Yrotation Xrotation
			JOINT RightFoot
			{
				OFFSET 0.015774 -0.398415 -0.042312
				CHANNELS 3 Zrotation Yrotation Xrotation
				JOINT RightToe
				{
					OFFSET -0.025372 -0.048144 0.123348
					CHANNELS 3 Zrotation Yrotation Xrotation
					End Site
					{
						OFFSET 0.000000 0.000000 0.000000
					}
				}
			}
		}
	}
	JOINT Spine
	{
		OFFSET -0.002533 0.108963 -0.026696
		CHANNELS 3 Zrotation Yrotation Xrotation
		JOINT Spine1
		{
			OFFSET 0.005487 0.135180 0.001092
			CHANNELS 3 Zrotation Yrotation Xrotation
			JOINT Spine2
			{
				OFFSET 0.001457 0.052922 0.025425
				CHANNELS 3 Zrotation Yrotation Xrotation
				JOINT Neck
				{
					OFFSET -0.002778 0.213870 -0.042857
					CHANNELS 3 Zrotation Yrotation Xrotation
					JOINT Head
					{
						OFFSET 0.005152 0.064970 0.051349
						CHANNELS 3 Zrotation Yrotation Xrotation
						End Site
						{
							OFFSET 0.000000 0.000000 0.000000
						}
					}
				}
				JOINT LeftShoulder
				{
					OFFSET 0.078845 0.121749 -0.034090
					CHANNELS 3 Zrotation Yrotation Xrotation
					JOINT LeftArm
					{
						OFFSET 0.090977 0.030469 -0.008868
						CHANNELS 3 Zrotation Yrotation Xrotation
						JOINT LeftForeArm
						{
							OFFSET 0.259612 -0.012772 -0.027456
							CHANNELS 3 Zrotation Yrotation Xrotation
							JOINT LeftHand
							{
								OFFSET 0.249234 0.008986 -0.001171
								CHANNELS 3 Zrotation Yrotation Xrotation
								End Site
								{
									OFFSET 0.000000 0.000000 0.000000
								}
							}
						}
					}
				}
				JOINT RightShoulder
				{
					OFFSET -0.081759 0.118833 -0.038615
					CHANNELS 3 Zrotation Yrotation Xrotation
					JOINT RightArm
					{
						OFFSET -0.096012 0.032551 -0.009143
						CHANNELS 3 Zrotation Yrotation Xrotation
						JOINT RightForeArm
						{
							OFFSET -0.253742 -0.013329 -0.021401
							CHANNELS 3 Zrotation Yrotation Xrotation
							JOINT RightHand
							{
								OFFSET -0.255298 0.007772 -0.005559
								CHANNELS 3 Zrotation Yrotation Xrotation
								End Site
								{
									OFFSET 0.000000 0.000000 0.000000
								}
							}
						}
					}
				}
			}
		}
	}
}
MOTION
Frames: 13
Frame Time: 0.050000
0.000000 0.951704 0.000000 -2.040716 8.893394 2.874668 4.020249 -0.338374 -3.636440 -3.805259 0.330945 -0.288870 5.374980 13.385899 9.236258 0.000000 0.000000 0.000000 0.583424 0.974675 -9.630599 1.089596 -0.003896 6.900857 -1.548918 -5.672938 6.971861 0.000000 0.000000 0.000000 2.381252 -1.188427 15.308551 -7.241503 2.531866 -22.268792 -5.690419 -1.082018 27.698935 6.242639 -1.514818 -25.077190 0.000000 0.000000 0.000000 -17.862363 -19.989805 8.446790 -48.238997 -26.827546 2.936410 10.465681 -19.157199 -0.924430 0.000000 0.000000 0.000000 23.935345 3.482307 2.253094 58.047509 13.826778 -1.750819 16.466734 40.037661 8.721950 0.000000 0.000000 0.000000 
0.003193 0.950769 0.002312 -1.744595 7.879302 3.136930 3.805007 -0.298936 -3.062247 -3.540502 0.323499 -1.515969 6.169158 14.697228 9.836981 0.000000 0.000000 0.000000 -0.451073 0.856357 -9.048290 2.022141 -0.171412 5.929780 -0.634715 -3.649576 6.452582 0.000000 0.000000 0.000000 2.211491 -1.166219 15.623589 -8.286693 2.811356 -21.622052 -6.416602 -0.166635 26.172850 4.403731 -0.405253 -24.252418 0.000000 0.000000 0.000000 -17.112466 -22.081098 9.340586 -45.782745 -30.676558 4.334253 12.075264 -15.339210 -0.962986 0.000000 0.000000 0.000000 25.002786 1.923568 1.344596 59.115744 10.597634 -3.200134 21.689036 41.767757 11.343304 0.000000 0.000000 0.000000 
0.006187 0.950530 0.003615 -2.099230 7.969156 2.884037 4.009383 -0.295139 -2.968140 -3.523780 0.320875 -1.343089 5.492416 13.930905 11.255894 0.000000 0.000000 0.000000 0.139109 0.887581 -8.961173 2.097212 -0.181607 6.543321 -0.153904 -2.912757 7.544722 0.000000 0.000000 0.000000 2.892591 -1.325358 16.123419 -9.049347 2.977869 -21.928872 -6.886410 -1.683211 26.502326 3.363605 -0.163479 -22.943482 0.000000 0.000000 0.000000 -16.375314 -23.213621 10.236233 -43.819161 -35.809696 5.903307 14.305114 -10.586666 -0.798305 0.000000 0.000000 0.000000 24.130807 2.238277 1.069352 60.240783 8.591004 -4.149737 23.348868 40.268016 11.359080 0.000000 0.000000 0.000000 
0.008685 0.950265 0.004632 -2.168141 7.925020 2.672065 3.671037 -0.275742 -2.744736 -2.721507 0.263094 -1.575822 5.482893 13.915900 11.262263 0.000000 0.000000 0.000000 -0.203961 0.816423 -8.404880 2.554050 -0.266655 5.924167 0.148894 -2.183370 7.265149 0.000000 0.000000 0.000000 3.025239 -1.386611 16.574992 -9.640503 3.123055 -21.942023 -7.770010 -1.893703 26.762660 2.567380 0.188339 -21.909539 0.000000 0.000000 0.000000 -16.212423 -25.398814 11.378692 -40.396877 -39.952217 6.666315 15.963293 -7.554420 -0.634724 0.000000 0.000000 0.000000 24.786815 1.390253 0.455030 59.946608 7.080060 -4.934809 27.968964 41.152251 13.527607 0.000000 0.000000 0.000000 
0.010811 0.950566 0.005210 -2.596476 8.399729 2.342913 4.405101 -0.289418 -2.785383 -3.321510 0.303773 -1.569055 5.053087 13.356646 11.555986 0.000000 0.000000 0.000000 0.091143 0.824357 -8.301884 2.130810 -0.193429 6.698879 0.022442 -2.367484 7.130825 0.000000 0.000000 0.000000 2.683593 -1.425350 17.440575 -9.000118 2.946089 -22.345095 -8.315355 -2.505374 26.788966 2.646988 -0.007518 -20.962289 0.000000 0.000000 0.000000 -15.863399 -26.790350 12.086660 -36.360459 -44.371836 7.059147 17.291668 -5.836759 -0.521305 0.000000 0.000000 0.000000 23.734645 1.181314 0.239262 61.037349 5.979672 -5.492791 30.661381 40.936705 14.527399 0.000000 0.000000 0.000000 
0.012592 0.950758 0.005643 -2.606010 8.947072 2.322623 4.295884 -0.313019 -3.206952 -3.216571 0.289574 -1.095317 4.689484 12.831959 11.472774 0.000000 0.000000 0.000000 0.175537 0.786807 -7.851321 1.630990 -0.108837 6.528146 0.576466 -0.943149 6.615683 0.000000 0.000000 0.000000 2.898528 -1.508392 17.747016 -9.757274 3.114826 -22.544796 -8.406157 -3.270897 27.299600 2.479995 0.044043 -21.398330 0.000000 0.000000 0.000000 -14.891947 -27.762246 12.485632 -33.552382 -45.879016 6.632763 18.452579 -7.944316 -0.841232 0.000000 0.000000 0.000000 23.808854 1.308877 0.154031 60.137004 5.125544 -5.898847 33.601935 40.953137 15.647944 0.000000 0.000000 0.000000 
0.014069 0.950665 0.006297 -2.741280 9.008056 2.258389 4.569389 -0.317152 -3.218925 -3.622215 0.319732 -1.194902 5.035231 13.319398 11.290277 0.000000 0.000000 0.000000 0.209338 0.771675 -7.664463 1.551682 -0.094515 6.587843 0.491725 -0.969969 6.143593 0.000000 0.000000 0.000000 2.641632 -1.506203 18.159364 -9.544025 3.075904 -22.421372 -8.520618 -3.117560 27.126313 2.515225 -0.042841 -20.359299 0.000000 0.000000 0.000000 -15.139587 -27.356134 12.288101 -32.990068 -45.485698 6.341555 19.646879 -11.982707 -1.470957 0.000000 0.000000 0.000000 23.781103 1.206492 0.153385 60.260421 4.892938 -6.019977 35.267051 41.450776 16.629601 0.000000 0.000000 0.000000 
0.015292 0.950439 0.007292 -2.623432 8.465357 2.326870 4.420411 -0.327528 -3.519988 -3.636288 0.324233 -0.840605 5.226827 13.639623 11.597615 0.000000 0.000000 0.000000 0.126718 0.758775 -7.563481 1.223628 -0.031722 6.263008 0.958828 0.140797 5.820958 0.000000 0.000000 0.000000 2.457799 -1.462371 18.213959 -9.795454 3.140223 -22.285687 -8.233629 -2.429730 27.371924 2.160481 0.212738 -20.009634 0.000000 0.000000 0.000000 -15.687245 -26.587763 11.938913 -33.789796 -42.596741 5.710744 20.812643 -19.362935 -2.674555 0.000000 0.000000 0.000000 23.611994 0.657096 -0.060924 59.654083 4.814013 -6.063584 38.757829 42.185552 18.607098 0.000000 0.000000 0.000000 
0.016014 0.949951 0.008340 -2.608877 8.031912 2.067719 4.490122 -0.279802 -2.675946 -3.704227 0.334733 -1.354873 5.884076 14.521240 11.234110 0.000000 0.000000 0.000000 0.182925 0.755980 -7.495161 0.756582 0.059661 6.430724 1.199932 0.644197 5.827179 0.000000 0.000000 0.000000 2.352709 -1.454176 18.491742 -9.892369 3.212165 -21.674869 -8.462322 -1.870938 26.959191 2.525791 -0.026521 -19.368020 0.000000 0.000000 0.000000 -16.599129 -24.965002 11.191475 -36.240162 -37.072171 4.699106 23.002126 -30.013591 -4.832403 0.000000 0.000000 0.000000 24.865770 0.461945 -0.140272 58.089622 4.668717 -6.040601 40.710473 43.221411 20.021969 0.000000 0.000000 0.000000 
0.016474 0.949956 0.009088 -2.643876 6.976445 2.119418 4.674781 -0.270525 -2.595173 -4.059960 0.371391 -1.376245 6.609558 15.577331 11.391067 0.000000 0.000000 0.000000 -0.025402 0.774858 -7.794156 0.729151 0.082407 6.801278 1.555233 1.322087 5.905251 0.000000 0.000000 0.000000 2.400536 -1.429404 18.480546 -10.180323 3.275217 -21.667870 -8.523202 -0.871799 27.522139 2.642372 -0.065114 -19.145473 0.000000 0.000000 0.000000 -17.523004 -23.420444 10.475207 -38.204035 -31.570543 3.303361 24.092446 -40.207525 -7.006465 0.000000 0.000000 0.000000 25.262398 -0.168372 -0.412541 57.657902 4.645857 -6.125237 43.939412 44.275825 22.281253 0.000000 0.000000 0.000000 
0.016709 0.949798 0.009129 -2.623988 6.219917 2.058560 4.534473 -0.260090 -2.557205 -4.125036 0.384054 -1.336423 7.038617 16.186437 11.435706 0.000000 0.000000 0.000000 -0.015589 0.775533 -7.780776 0.570764 0.115196 6.648993 1.909254 1.911273 6.232089 0.000000 0.000000 0.000000 2.329860 -1.391906 18.476314 -9.921849 3.240500 -21.209366 -8.878080 -0.334509 27.469822 2.974956 -0.244754 -19.312699 0.000000 0.000000 0.000000 -18.190201 -22.660375 10.144909 -38.950558 -28.646817 2.494877 23.503269 -44.739864 -7.645420 0.000000 0.000000 0.000000 25.722091 0.074887 -0.251970 56.950780 4.542309 -6.136112 45.768734 46.219749 24.298476 0.000000 0.000000 0.000000 
0.016952 0.949828 0.008517 -2.632004 5.439771 1.980349 4.239301 -0.247262 -2.502798 -3.853365 0.370035 -1.458605 7.198305 16.393251 11.492633 0.000000 0.000000 0.000000 -0.024672 0.793288 -7.958760 0.967338 0.058891 6.953177 1.983314 1.973121 6.302785 0.000000 0.000000 0.000000 2.234032 -1.374076 18.770234 -10.021712 3.238741 -21.485339 -9.231958 -0.687193 27.473733 2.900269 -0.254579 -19.988814 0.000000 0.000000 0.000000 -18.204518 -23.058494 10.580589 -38.598099 -29.117960 2.563092 22.898041 -44.281522 -7.228765 0.000000 0.000000 0.000000 26.646090 0.556844 -0.280939 56.575492 4.808163 -5.954539 46.009066 46.183584 24.171830 0.000000 0.000000 0.000000 
0.017181 0.950181 0.007540 -2.633890 5.097121 1.944310 4.236382 -0.254480 -2.696200 -3.863885 0.374111 -1.402501 6.890953 15.901958 11.415894 0.000000 0.000000 0.000000 -0.317137 0.809011 -8.287856 1.195543 0.027081 7.233171 1.938818 1.809172 6.376535 0.000000 0.000000 0.000000 2.030590 -1.334954 18.889101 -9.928827 3.187864 -21.826547 -9.442019 -1.642891 27.634767 2.084414 0.076624 -19.885536 0.000000 0.000000 0.000000 -18.235627 -24.312583 11.570460 -36.932156 -33.133154 3.510280 22.946315 -40.003664 -6.403213 0.000000 0.000000 0.000000 26.854457 0.949738 -0.469677 56.236090 4.070274 -6.199687 46.974378 46.497814 24.543840 0.000000 0.000000 0.000000 
